<svg width="53" height="56" viewBox="0 0 53 56" fill="none" xmlns="http://www.w3.org/2000/svg">
<path d="M19.3571 51.2323C15.6425 50.1709 12.3757 48.2166 9.52346 45.4874C8.62799 45.8075 7.71593 46.1276 6.78729 46.4308C6.35614 46.5656 5.92498 46.515 5.47724 46.3466C4.68127 46.0433 4.20036 45.4537 3.85212 44.7292C3.37122 43.769 2.75765 42.8929 2.27675 41.9326C1.8456 41.0397 1.21545 40.2647 0.850624 39.3381C0.668212 38.8833 0.187309 38.58 0.187309 38.0072C-0.243846 37.2996 0.170726 36.6763 0.419469 36.0529C0.4858 35.8845 0.568715 35.6655 0.717961 35.5981C1.31494 35.3285 1.61344 34.722 2.11092 34.3514C2.34308 34.1829 2.59182 33.9976 2.85715 33.7954C2.47574 31.858 2.14409 29.9206 2.14409 27.9326C2.14409 25.9615 2.49233 24.0578 2.85715 22.1709C2.21042 21.5644 1.61344 20.9747 0.983286 20.4188C0.336555 19.846 -0.0448513 19.1384 0.038063 18.3971C0.0878117 17.9928 0.203892 17.5548 0.402886 17.2178C1.01645 16.2238 1.58027 15.1793 2.17725 14.1685C2.65816 13.3598 3.07273 12.5174 3.60338 11.7256C3.88529 11.3213 4.05112 10.8496 4.33303 10.4284C4.88026 9.63658 5.97473 9.2491 6.8702 9.51865C7.66618 9.75451 8.41241 10.1083 9.22497 10.2599C9.30789 10.2768 9.37422 10.3947 9.45713 10.4789C12.326 7.76655 15.5928 5.82912 19.3405 4.70036C19.4898 4.24549 19.5229 3.75692 19.7053 3.2852C19.838 2.93141 19.8048 2.49338 19.8712 2.1059C20.0536 1.09507 20.6672 0.505415 21.546 0.202166C21.8611 0.101083 22.1762 0 22.5576 0C24.8792 0.0336943 27.2008 0.0336943 29.5224 0C30.1857 0 30.7495 0.269555 31.2802 0.572804C31.7611 0.825511 32.0264 1.36462 32.1591 1.87004C32.3912 2.79663 32.5239 3.74007 32.7063 4.71721C36.4375 5.79543 39.7043 7.73285 42.5565 10.4621C43.452 10.142 44.3641 9.8219 45.2927 9.51865C45.7239 9.38387 46.155 9.43442 46.6028 9.60289C47.3987 9.90614 47.8796 10.4958 48.2279 11.2202C48.7088 12.1805 49.3223 13.0566 49.8032 14.0168C50.2344 14.9097 50.8646 15.6847 51.2294 16.6113C51.4118 17.0662 51.8927 17.3694 51.8927 17.9422C52.3238 18.6498 51.9093 19.2732 51.6605 19.8965C51.5942 20.065 51.5113 20.284 51.362 20.3514C50.7651 20.6209 50.4666 21.2274 49.9691 21.5981C49.7369 21.7665 49.4882 21.9519 49.2228 22.154C49.6043 24.0915 49.9359 26.0289 49.9359 28.0168C49.9359 29.988 49.6374 31.8917 49.2228 33.7786C49.8696 34.3851 50.4666 34.9747 51.0967 35.5307C51.7434 36.1035 52.1248 36.8111 52.0419 37.5523C51.9922 37.9567 51.8927 38.3947 51.6771 38.7316C51.0801 39.7088 50.5163 40.7196 49.9359 41.7136C49.2063 42.9434 48.6093 44.2744 47.7636 45.4368C47.6143 46.077 47.0173 46.1276 46.5862 46.3634C46.1219 46.6161 45.6575 46.5487 45.1435 46.3971C44.3806 46.1781 43.651 45.7906 42.855 45.6895C42.7721 45.6727 42.7058 45.5548 42.6229 45.4705C39.754 48.2166 36.5038 50.1709 32.7063 51.2659C32.5239 52.1757 32.3581 53.1191 32.1591 54.0457C31.9601 54.9555 31.3631 55.5283 30.5174 55.7978C30.2023 55.8989 29.8706 56 29.5058 56C27.1842 55.9663 24.8626 55.9663 22.541 56C21.8777 56 21.3139 55.7304 20.7832 55.4272C20.3023 55.1745 20.0204 54.6354 19.9209 54.13C19.7385 53.136 19.5561 52.2094 19.3571 51.2323ZM20.435 36.3899C20.7666 36.2046 21.1481 36.0866 21.1646 35.6823C21.1978 35.0758 21.2807 34.4525 21.1481 33.8797C20.9159 32.9025 20.5013 31.9591 20.2526 30.9819C20.0868 30.3586 19.7219 29.769 19.7385 29.0951C19.2079 27.7641 18.8762 26.3658 18.4285 25.0181C18.0636 23.9061 17.7983 22.7605 17.4003 21.6655C17.1847 21.059 17.135 20.3851 16.737 19.846C16.7038 19.7954 16.6873 19.7617 16.6873 19.7617C16.2395 19.4585 15.7752 19.5596 15.3772 19.5596C15.1451 19.7786 14.9461 19.9639 14.7636 20.1324C14.7471 20.6715 14.3657 21.0927 14.432 21.6149C13.8516 22.929 13.6028 24.3442 13.1219 25.6919C12.8732 26.3827 12.724 27.0903 12.525 27.7978C12.3426 28.5054 11.9446 29.1456 11.9446 29.9037C11.3144 31.3357 10.9993 32.8688 10.535 34.3682C10.4189 34.7389 10.3526 35.0927 10.5848 35.4464C10.6511 35.5475 10.6179 35.6992 10.6179 35.6823C10.8833 35.9687 11.0823 36.1709 11.2481 36.373C11.5632 36.373 11.8948 36.373 12.2431 36.373C12.4752 36.0698 12.7074 35.7834 12.923 35.497C12.8732 34.5367 13.0722 33.8965 13.5034 32.8688C15.1285 32.8688 16.7536 32.8688 18.3787 32.8688C18.5114 33.4079 18.5777 33.9302 18.7601 34.4188C18.843 34.6209 18.9259 34.8231 18.8928 35.0253C18.843 35.6486 19.042 36.1372 19.7385 36.373C19.9043 36.3899 20.1531 36.3899 20.435 36.3899ZM24.3154 36.3899C24.7631 36.3562 25.2772 36.491 25.642 36.1203C25.7747 35.9519 25.8908 35.7834 26.0566 35.5475C26.0566 33.8628 26.0566 32.0939 26.0566 30.3249C27.2671 30.3249 28.4611 30.2744 29.6385 30.3418C30.3515 30.3755 30.9319 30.1564 31.4958 29.8026C31.7611 29.6342 31.9932 29.3815 32.2254 29.1456C32.839 28.5391 33.1375 27.7978 33.154 26.9218C33.154 25.5403 33.154 24.1757 33.154 22.7942C33.154 22.5921 33.1043 22.373 33.0546 22.1709C32.8721 21.4464 32.4907 20.9073 31.9767 20.4356C31.3797 19.8797 30.6832 19.5427 29.8541 19.5427C27.9968 19.5427 26.1561 19.5427 24.2822 19.5427C24.0998 19.7449 23.9174 19.9471 23.7018 20.1492C23.7018 25.3381 23.7018 30.5608 23.7018 35.8002C23.9174 35.9856 24.1164 36.1877 24.3154 36.3899ZM36.255 36.3899C37.3993 36.3899 38.5601 36.3899 39.7043 36.3899C39.9033 36.1877 40.1023 35.9856 40.3013 35.8002C40.3013 35.4801 40.3013 35.1769 40.3013 34.8568C40.3013 34.8231 40.3013 34.8063 40.3013 34.7894C40.0525 34.3177 39.6711 34.0313 39.1736 33.9807C39.1736 29.9543 39.1736 25.9446 39.1736 22.0193C39.5385 21.8339 39.8535 21.6655 40.2184 21.4633C40.2681 21.0253 40.3013 20.5704 40.3344 20.2503C40.0691 19.9471 39.8867 19.728 39.7374 19.5596C38.5435 19.5596 37.3827 19.5596 36.3545 19.5596C36.0726 19.8123 35.8736 19.9976 35.6249 20.2335C35.6746 20.6378 35.741 21.0927 35.7907 21.4801C36.1887 21.6823 36.5038 21.8508 36.7857 22.0024C36.7857 26.012 36.7857 30.0217 36.7857 33.9976C36.6199 34.0313 36.4375 33.9976 36.3711 34.0818C36.139 34.3177 35.741 34.3851 35.6581 34.7726C35.6581 35.1095 35.6581 35.4464 35.6581 35.7834C35.8571 35.9856 36.056 36.1877 36.255 36.3899Z" fill="white"/>
</svg>
