<svg width="56" height="56" viewBox="0 0 56 56" fill="none" xmlns="http://www.w3.org/2000/svg">
<g clip-path="url(#clip0_3296_3871)">
<path d="M46.5067 23.5335L28.5742 33.7481C28.2514 33.9379 27.8527 33.9379 27.5204 33.7481L9.5879 23.5335C8.88541 23.1347 8.88541 22.119 9.5879 21.7108L27.5204 11.4962C27.8432 11.3063 28.2419 11.3063 28.5742 11.4962L46.5067 21.7108C47.2092 22.1095 47.2092 23.1252 46.5067 23.5335Z" fill="#3DCFB6"/>
<path d="M43.4027 26.97V35.3904C43.4027 35.7701 43.2033 36.1119 42.8711 36.3017L28.5744 44.4468C28.2516 44.6367 27.8529 44.6367 27.5207 44.4468L13.224 36.3017C12.8917 36.1119 12.6924 35.7701 12.6924 35.3904V26.97L20.6191 31.4792L27.5207 35.4189C27.8434 35.6087 28.2421 35.6087 28.5744 35.4189L35.4759 31.4792L43.4027 26.97Z" fill="#3DCFB6"/>
<path d="M51.7566 13.072L52.2502 12.7302C52.8483 12.3125 52.7723 11.4107 52.1173 11.0974L48.1871 9.22727C47.5226 8.914 46.7727 9.43612 46.8296 10.1671L47.2094 14.5055C47.2758 15.2269 48.1017 15.6161 48.6998 15.1985L49.4023 14.7143C55.6488 24.777 53.9685 38.1813 45.2348 46.3454C36.6435 54.3766 23.4006 55.3544 13.7461 48.6712C13.1005 48.2251 12.2082 48.3864 11.762 49.032C11.3158 49.6775 11.4772 50.5699 12.1227 51.016C16.8978 54.3197 22.4513 55.943 27.9953 55.943C34.9347 55.943 41.8552 53.3988 47.1809 48.4244C56.9303 39.3015 58.81 24.2929 51.7566 13.072Z" fill="#3DCFB6"/>
<path d="M43.9723 4.92698C33.2261 -2.51564 18.4833 -1.42393 8.91418 7.5186C-1.08209 16.8693 -2.87629 31.8115 4.57582 43.2223L3.88282 43.6969C3.28475 44.1146 3.36069 45.0165 4.01572 45.3298L7.94588 47.1999C8.6104 47.5132 9.36036 46.9911 9.3034 46.2601L8.92367 41.9217C8.85722 41.2002 8.03132 40.811 7.43325 41.2287L6.92062 41.5895C0.294412 31.3464 1.89875 17.9705 10.8603 9.5976C19.4516 1.56641 32.6945 0.579121 42.349 7.27178C42.9945 7.71796 43.8869 7.55658 44.3331 6.91104C44.7792 6.26551 44.6179 5.37315 43.9723 4.92698Z" fill="#3DCFB6"/>
</g>
<defs>
<clipPath id="clip0_3296_3871">
<rect width="56" height="55.943" fill="white"/>
</clipPath>
</defs>
</svg>
