<svg width="56" height="56" viewBox="0 0 56 56" fill="none" xmlns="http://www.w3.org/2000/svg">
<g clip-path="url(#clip0_3296_3854)">
<path d="M7.37333 9.14661V46.9466C2.8 41.9066 0 35.2799 0 27.9999C0 20.7199 2.8 14.0933 7.37333 9.14661Z" fill="white"/>
<path d="M10.3599 13.2533L26.5065 45.64H10.3599V13.2533Z" fill="white"/>
<path d="M28 42L12.1333 10.36H43.8666L28 42Z" fill="white"/>
<path d="M27.9998 0C35.2798 0 41.9065 2.8 46.8532 7.37333H9.14648C14.0932 2.8 20.7198 0 27.9998 0Z" fill="white"/>
<path d="M45.6398 45.64H29.4932L45.6398 13.2533V45.64Z" fill="white"/>
<path d="M46.8532 48.6267C41.9065 53.2 35.2798 56 27.9998 56C20.7198 56 14.0932 53.2 9.14648 48.6267H46.8532Z" fill="white"/>
<path d="M48.6265 46.8533V9.14661C53.1998 14.0933 55.9998 20.7199 55.9998 27.9999C55.9998 35.2799 53.1998 41.9066 48.6265 46.8533Z" fill="white"/>
<path d="M10.3599 13.2533L26.5065 45.64H10.3599V13.2533Z" fill="white"/>
<path d="M28 42L12.1333 10.36H43.8666L28 42Z" fill="white"/>
<path d="M29.4932 45.64L45.6398 13.2533V45.64H29.4932Z" fill="white"/>
<path d="M12.1333 10.36H43.8666L28 42L12.1333 10.36Z" fill="white"/>
</g>
<defs>
<clipPath id="clip0_3296_3854">
<rect width="56" height="56" fill="white"/>
</clipPath>
</defs>
</svg>
