<svg width="56" height="56" viewBox="0 0 56 56" fill="none" xmlns="http://www.w3.org/2000/svg">
<path d="M55.8981 4.45657C55.4907 2.31742 53.8354 0.585721 51.7217 0.127331C51.6198 0.101864 51.518 0.101864 51.3906 0.0763984C51.3652 0.0763984 51.3397 0.0254661 51.3142 0H4.60937C4.5839 0.0254661 4.55844 0.0763984 4.5075 0.0763984C2.39382 0.432924 0.611187 2.11369 0.127331 4.25284C0.101864 4.32924 0.0509322 4.4311 0 4.53297V51.3652C0.0254661 51.4161 0.0763984 51.4416 0.0763984 51.4925C0.585721 53.8354 2.01182 55.2869 4.32924 55.8727C4.40564 55.8981 4.45657 55.9491 4.5075 56H51.3906C51.4416 55.9745 51.467 55.9236 51.518 55.8981C53.8354 55.3633 55.2615 53.9627 55.8472 51.6453C55.8727 51.5689 55.8472 51.467 55.8727 51.3906C55.8727 51.3652 55.9236 51.3397 55.9491 51.3142V4.60937C55.9491 4.55844 55.8981 4.53297 55.8981 4.45657ZM32.4693 31.0432H32.1892C30.0755 31.0432 27.9363 31.0432 25.8226 31.0432C25.7208 31.0432 25.6189 31.0432 25.5171 31.0432C25.5171 31.0687 25.4916 31.0687 25.4916 31.0941C25.4916 31.196 25.4916 31.2979 25.4916 31.3997V51.0341H19.9145V31.0687H12.9113V26.6121H32.4438V31.0432H32.4693ZM51.2633 44.362C51.2124 45.2278 51.085 46.0682 50.7285 46.8831C50.6267 47.1378 50.5503 47.367 50.4229 47.6216C49.9645 48.5894 49.2006 49.2769 48.3092 49.8372C47.2906 50.4739 46.1701 50.8304 44.9986 51.0596C43.6999 51.3142 42.4011 51.3906 41.0769 51.3397C40.4402 51.3142 39.8036 51.3142 39.1669 51.2378C37.6644 51.0596 36.1874 50.7285 34.8122 50.0664C34.7358 50.0409 34.6339 49.9136 34.6339 49.8372C34.6339 48.1819 34.6339 46.5266 34.6339 44.8713C34.6339 44.8458 34.6339 44.8204 34.6339 44.7694C35.0414 45.0496 35.4488 45.3297 35.8563 45.5589C36.8495 46.1446 37.9445 46.5521 39.065 46.8067C40.0327 47.0359 41.0005 47.0614 41.9682 47.0105C42.7067 46.985 43.4452 46.8067 44.1073 46.4757C44.693 46.1701 45.1769 45.7626 45.3042 45.075C45.4316 44.4638 45.3806 43.8527 45.0241 43.3179C44.5148 42.5539 43.8017 42.07 43.0123 41.6626C42.121 41.2296 41.2297 40.8477 40.3129 40.4402C38.9632 39.829 37.6389 39.1669 36.5439 38.1483C35.6526 37.3079 34.9905 36.3147 34.6849 35.1178C34.5066 34.4047 34.4557 33.6917 34.4811 32.9786C34.5066 31.2215 35.1432 29.719 36.3911 28.4711C37.4097 27.4525 38.6576 26.8413 40.0327 26.4848C40.975 26.2556 41.9172 26.0773 42.8849 26.0518C43.5725 26.0518 44.2601 25.9754 44.9222 26.0009C45.9664 26.0264 46.985 26.0773 48.0036 26.332C48.6658 26.5102 49.3533 26.6885 50.0155 26.8413C50.1428 26.8668 50.1937 26.9432 50.1937 27.096C50.1937 28.6749 50.1937 30.2792 50.1937 31.8581C50.1937 31.909 50.1937 31.96 50.1683 32.0364C49.9645 31.909 49.7863 31.8072 49.608 31.7053C48.7931 31.2469 47.9272 30.9413 47.0359 30.7121C46.0428 30.4829 45.0496 30.3301 44.0309 30.3556C43.3433 30.3811 42.6303 30.4829 41.9936 30.7121C41.2042 30.9923 40.5675 31.4507 40.2874 32.291C40.0582 32.9532 40.2365 33.5134 40.6439 34.0482C41.1533 34.7103 41.8408 35.1687 42.5794 35.5252C43.5725 36.0091 44.5912 36.4166 45.5589 36.8749C46.6794 37.4097 47.7999 37.9445 48.7422 38.734C49.5571 39.4216 50.2956 40.1855 50.7031 41.2042C50.9322 41.8154 51.136 42.452 51.136 43.1396C51.2378 43.5471 51.2888 43.9545 51.2633 44.362Z" fill="white"/>
</svg>
